REM DIRINDEX 1\2,1\3,1\4
REM DIRNAME cjc085,folder01,folder02,folder03
TITLE ""
FILE "Disc2Track11.mp3" MP3
  TRACK 01 AUDIO
    TITLE "0:"
    INDEX 01 00:00:00
  TRACK 02 AUDIO
    TITLE "4:cjc085_1500"
    INDEX 01 00:05:28
  TRACK 03 AUDIO
    TITLE "0:"
    INDEX 01 00:08:15
  TRACK 04 AUDIO
    TITLE "4:cjc085_1501"
    INDEX 01 00:09:36
  TRACK 05 AUDIO
    TITLE "2:cjc085_1502"
    INDEX 01 00:11:74
  TRACK 06 AUDIO
    TITLE "0:"
    INDEX 01 00:16:28
  TRACK 07 AUDIO
    TITLE "3:cjc085_1503"
    INDEX 01 00:17:31
  TRACK 08 AUDIO
    TITLE "0:"
    INDEX 01 00:21:09
  TRACK 09 AUDIO
    TITLE "4:cjc085_1504"
    INDEX 01 00:22:36
  TRACK 10 AUDIO
    TITLE "2:cjc085_1505"
    INDEX 01 00:24:74
  TRACK 11 AUDIO
    TITLE "0:"
    INDEX 01 00:30:36
  TRACK 12 AUDIO
    TITLE "3:cjc085_1506"
    INDEX 01 00:30:63
  TRACK 13 AUDIO
    TITLE "0:"
    INDEX 01 00:35:37
  TRACK 14 AUDIO
    TITLE "4:cjc085_1507"
    INDEX 01 00:36:27
  TRACK 15 AUDIO
    TITLE "2:cjc085_1508"
    INDEX 01 00:38:57
  TRACK 16 AUDIO
    TITLE "0:"
    INDEX 01 00:41:47
  TRACK 17 AUDIO
    TITLE "3:cjc085_1509"
    INDEX 01 00:42:39
  TRACK 18 AUDIO
    TITLE "0:"
    INDEX 01 00:44:69
  TRACK 19 AUDIO
    TITLE "4:cjc085_1510"
    INDEX 01 00:46:06
  TRACK 20 AUDIO
    TITLE "2:cjc085_1511"
    INDEX 01 00:48:67
  TRACK 21 AUDIO
    TITLE "0:"
    INDEX 01 00:53:41
  TRACK 22 AUDIO
    TITLE "3:cjc085_1512"
    INDEX 01 00:53:74
  TRACK 23 AUDIO
    TITLE "0:"
    INDEX 01 00:58:44
  TRACK 24 AUDIO
    TITLE "4:cjc085_1513"
    INDEX 01 01:00:41
  TRACK 25 AUDIO
    TITLE "2:cjc085_1514"
    INDEX 01 01:02:63
  TRACK 26 AUDIO
    TITLE "0:"
    INDEX 01 01:06:36
  TRACK 27 AUDIO
    TITLE "3:cjc085_1515"
    INDEX 01 01:07:31
  TRACK 28 AUDIO
    TITLE "0:"
    INDEX 01 01:11:58
  TRACK 29 AUDIO
    TITLE "4:cjc085_1516"
    INDEX 01 01:13:12
  TRACK 30 AUDIO
    TITLE "2:cjc085_1517"
    INDEX 01 01:15:60
  TRACK 31 AUDIO
    TITLE "0:"
    INDEX 01 01:25:21
  TRACK 32 AUDIO
    TITLE "3:cjc085_1518"
    INDEX 01 01:26:19
  TRACK 33 AUDIO
    TITLE "0:"
    INDEX 01 01:32:37
  TRACK 34 AUDIO
    TITLE "4:cjc085_1519"
    INDEX 01 01:33:52
  TRACK 35 AUDIO
    TITLE "2:cjc085_1520"
    INDEX 01 01:36:33
  TRACK 36 AUDIO
    TITLE "0:"
    INDEX 01 01:42:18
  TRACK 37 AUDIO
    TITLE "3:cjc085_1521"
    INDEX 01 01:42:71
  TRACK 38 AUDIO
    TITLE "0:"
    INDEX 01 01:46:55
  TRACK 39 AUDIO
    TITLE "4:cjc085_1522"
    INDEX 01 01:47:44
  TRACK 40 AUDIO
    TITLE "2:cjc085_1523"
    INDEX 01 01:50:09
  TRACK 41 AUDIO
    TITLE "0:"
    INDEX 01 01:56:37
  TRACK 42 AUDIO
    TITLE "3:cjc085_1524"
    INDEX 01 01:57:27
  TRACK 43 AUDIO
    TITLE "0:"
    INDEX 01 02:01:52
  TRACK 44 AUDIO
    TITLE "4:cjc085_1525"
    INDEX 01 02:02:54
  TRACK 45 AUDIO
    TITLE "2:cjc085_1526"
    INDEX 01 02:05:36
  TRACK 46 AUDIO
    TITLE "0:"
    INDEX 01 02:09:32
  TRACK 47 AUDIO
    TITLE "3:cjc085_1527"
    INDEX 01 02:10:12
  TRACK 48 AUDIO
    TITLE "0:"
    INDEX 01 02:13:73
  TRACK 49 AUDIO
    TITLE "4:cjc085_1528"
    INDEX 01 02:14:47
  TRACK 50 AUDIO
    TITLE "2:cjc085_1529"
    INDEX 01 02:16:68
  TRACK 51 AUDIO
    TITLE "0:"
    INDEX 01 02:19:31
  TRACK 52 AUDIO
    TITLE "3:cjc085_1530"
    INDEX 01 02:20:34
  TRACK 53 AUDIO
    TITLE "0:"
    INDEX 01 02:23:09
  TRACK 54 AUDIO
    TITLE "4:cjc085_1531"
    INDEX 01 02:23:68
  TRACK 55 AUDIO
    TITLE "2:cjc085_1532"
    INDEX 01 02:26:29
  TRACK 56 AUDIO
    TITLE "0:"
    INDEX 01 02:31:26
  TRACK 57 AUDIO
    TITLE "3:cjc085_1533"
    INDEX 01 02:32:00
  TRACK 58 AUDIO
    TITLE "0:"
    INDEX 01 02:35:67
  TRACK 59 AUDIO
    TITLE "4:cjc085_1534"
    INDEX 01 02:36:31
  TRACK 60 AUDIO
    TITLE "2:cjc085_1535"
    INDEX 01 02:38:65
  TRACK 61 AUDIO
    TITLE "0:"
    INDEX 01 02:41:44
  TRACK 62 AUDIO
    TITLE "3:cjc085_1536"
    INDEX 01 02:42:43
  TRACK 63 AUDIO
    TITLE "0:"
    INDEX 01 02:45:32
  TRACK 64 AUDIO
    TITLE "4:cjc085_1537"
    INDEX 01 02:46:61
  TRACK 65 AUDIO
    TITLE "2:cjc085_1538"
    INDEX 01 02:48:46
  TRACK 66 AUDIO
    TITLE "0:"
    INDEX 01 02:52:61
  TRACK 67 AUDIO
    TITLE "3:cjc085_1539"
    INDEX 01 02:54:00
  TRACK 68 AUDIO
    TITLE "0:"
    INDEX 01 02:56:73
  TRACK 69 AUDIO
    TITLE "4:cjc085_1540"
    INDEX 01 02:57:69
  TRACK 70 AUDIO
    TITLE "2:cjc085_1541"
    INDEX 01 02:59:73
  TRACK 71 AUDIO
    TITLE "0:"
    INDEX 01 03:03:61
  TRACK 72 AUDIO
    TITLE "3:cjc085_1542"
    INDEX 01 03:04:57
  TRACK 73 AUDIO
    TITLE "0:"
    INDEX 01 03:07:43
  TRACK 74 AUDIO
    TITLE "4:cjc085_1543"
    INDEX 01 03:08:29
  TRACK 75 AUDIO
    TITLE "2:cjc085_1544"
    INDEX 01 03:10:14
  TRACK 76 AUDIO
    TITLE "0:"
    INDEX 01 03:12:33
  TRACK 77 AUDIO
    TITLE "3:cjc085_1545"
    INDEX 01 03:14:18
  TRACK 78 AUDIO
    TITLE "0:"
    INDEX 01 03:16:36
